<svg width="1254" height="1254" viewBox="0 0 1254 1254" fill="none" xmlns="http://www.w3.org/2000/svg">
<path d="M196.198 679.067C257.614 680.799 305.306 630.433 360.687 611.553C415.454 592.883 472.86 598.254 527.693 579.249C548.14 572.163 565.546 565.194 585.899 556.797C619.672 542.864 661.443 519.304 698.051 518.13C720.893 517.397 737.925 533.431 752.882 548.456L775.453 571.527C770.088 576.149 761.875 574.332 754.545 578.05C735.216 587.855 716.223 600.966 700.329 615.619C710.153 621.682 718.653 629.665 725.32 639.089L726.328 640.507C715.872 652.022 702.595 663.257 691.299 674.085C681.101 683.86 671.202 693.987 660.946 703.639C651.2 702.537 635.923 685.411 629.05 678.507C623.065 684.466 614.72 691.134 608.156 696.643C585.153 716.255 560.686 734.081 534.968 749.966C526.763 754.928 509.995 760.619 503.791 765.631C491.357 771.444 480.348 774.158 467.535 777.366C429.944 786.777 387.188 778.725 358.201 752.241C339.894 735.514 326.968 718.92 302.112 708.985C284.145 701.803 272.887 702.424 254.331 700.905C231.861 699.065 214.822 690.987 196.198 679.067Z" fill="#F51312"/>
<path d="M700.329 615.619C710.153 621.682 718.653 629.665 725.32 639.089L726.328 640.507C715.872 652.022 702.595 663.257 691.299 674.085C681.101 683.86 671.202 693.987 660.946 703.639C651.2 702.537 635.923 685.411 629.05 678.507C642.092 664.883 657.651 652.264 671.669 639.567C680.742 631.349 690.645 623.06 700.329 615.619Z" fill="#171EE3"/>
<path d="M503.791 765.631C509.995 760.619 526.763 754.928 534.968 749.966C560.686 734.081 585.153 716.255 608.156 696.643C614.72 691.134 623.065 684.466 629.05 678.507C635.923 685.411 651.2 702.537 660.946 703.639C667.337 706.642 673.41 709.835 679.967 712.517C689.851 716.644 699.704 720.556 709.34 725.28C716.419 728.792 723.796 731.645 726.784 739.608C730.883 750.531 725.466 764.91 714.86 769.933C706.458 773.912 696.803 776.959 687.999 780.082L638.063 797.813L470.56 857.663L418.12 875.852C404.845 880.592 389.325 886.887 375.784 889.886C364.579 892.367 350.738 892.711 339.27 893.962C354.703 880.648 502.198 769.911 503.791 765.631Z" fill="#DFB119"/>
<path d="M775.453 571.527C785.198 583.314 798.934 596.995 809.685 608.419C818.481 617.764 830.431 631.502 839.343 639.825C875.364 640.94 911.348 643.026 947.256 646.083C961.634 647.175 976.628 647.966 990.884 649.942C1000.37 651.257 1004.35 663.991 1003.78 672.432C1003.36 677.869 1000.8 682.917 996.658 686.465C993.165 689.515 990.365 690.315 985.939 691.019C973.636 692.975 960.792 693.534 948.338 694.462C931.767 695.78 915.203 697.195 898.649 698.707L835.483 704.32C825.642 705.211 809.803 707.137 800.229 707.234L750.212 661.719C744.263 656.333 732.515 645.236 726.328 640.507L725.32 639.089C718.653 629.665 710.153 621.682 700.329 615.619C716.223 600.966 735.216 587.855 754.545 578.05C761.875 574.332 770.088 576.149 775.453 571.527Z" fill="#DFB119"/>
<path d="M814.437 410.447C838.842 427.715 867.519 448.633 876.508 478.445C877.577 481.992 878.595 485.572 879.574 489.145C890.948 493.779 911.972 503.062 922.383 509.323C914.185 509.498 906.151 509.079 897.981 509.023C848.215 508.685 798.348 510.641 748.602 509.317C744.813 509.216 741.005 508.96 737.22 508.892C738.531 507.043 742.533 501.176 743.906 499.803C746.783 498.69 748.873 495.696 749.958 492.921C750.415 474.254 766.471 451.233 779.619 439.04C790.462 428.983 803.103 420.602 814.437 410.447Z" fill="#36E316"/>
<path d="M479.563 488.985C530.844 505.35 563.048 480.72 608.486 463.546C657.586 444.989 705.449 471.386 749.958 492.921C748.873 495.696 746.783 498.69 743.906 499.803C712.609 485.355 657.871 481.375 626.208 493.085C607.252 500.096 587.319 510.232 566.886 512.08C536.063 514.868 503.921 508.89 479.563 488.985Z" fill="#171EE3"/>
<path d="M754.831 513.045C794.284 513.68 833.744 513.733 873.198 513.204C872.016 531.838 867.833 542.156 855.339 556.168C845.569 566.504 833.317 573.115 818.991 573.874C803.269 574.708 787.869 569.209 776.231 558.606C763.321 546.871 755.62 530.474 754.831 513.045Z" fill="#DFB119"/>
</svg>
